<?xml version="1.0" encoding="UTF-8" standalone="no"?>
<!--
  - Copyright 2024 Mark Slater
  -
  - Licensed under the Apache License, Version 2.0 (the "License"); you may not use this file except in compliance with the License. You may obtain a copy of the License at
  -
  - 	http://www.apache.org/licenses/LICENSE-2.0
  -
  - Unless required by applicable law or agreed to in writing, software distributed under the License is distributed on an "AS IS" BASIS, WITHOUT WARRANTIES OR CONDITIONS OF ANY KIND, either express or implied. See the License for the specific language governing permissions and limitations under the License.
  -->
<svg xmlns="http://www.w3.org/2000/svg" width="32" height="32" version="1.1">
  <style>
    .green {
      fill: #00ff00;
    }
    .orange {
      fill: #ff8f44;
    }
    .yellow {
      fill: #ffff00;
    }
    .blue {
      fill: #0000ff;
    }
    .pink {
      fill: #ff3bd3;
    }
  </style>
  <g transform="translate(-96.109932,-92.857155)" stroke="#000000">
    <path class="green"
       transform="matrix(1.056686,0,0,1.056686,83.495952,87.68469)"
       d="m 19.44777,9.8001871 a 2.6052673,2.6052673 0 1 1 -5.210535,0 2.6052673,2.6052673 0 1 1 5.210535,0 z"
       />
    <path class="orange"
       transform="matrix(1.056686,0,0,1.056686,97.679147,87.68469)"
       d="m 19.44777,9.8001871 a 2.6052673,2.6052673 0 1 1 -5.210535,0 2.6052673,2.6052673 0 1 1 5.210535,0 z"/>
    <path class="yellow"
       transform="matrix(1.056686,0,0,1.056686,83.495952,101.86788)"
       d="m 19.44777,9.8001871 a 2.6052673,2.6052673 0 1 1 -5.210535,0 2.6052673,2.6052673 0 1 1 5.210535,0 z"/>
    <path class="blue"
       transform="matrix(1.056686,0,0,1.056686,104.77074,94.776288)"
       d="m 19.44777,9.8001871 a 2.6052673,2.6052673 0 1 1 -5.210535,0 2.6052673,2.6052673 0 1 1 5.210535,0 z" />
    <path class="pink"
       transform="matrix(1.056686,0,0,1.056686,90.587549,94.776288)"
       d="m 19.44777,9.8001871 a 2.6052673,2.6052673 0 1 1 -5.210535,0 2.6052673,2.6052673 0 1 1 5.210535,0 z"/>
    <path class="green"
       transform="matrix(1.056686,0,0,1.056686,97.679147,101.86788)"
       d="m 19.44777,9.8001871 a 2.6052673,2.6052673 0 1 1 -5.210535,0 2.6052673,2.6052673 0 1 1 5.210535,0 z"/>
    <path class="orange"
       transform="matrix(1.056686,0,0,1.056686,90.587549,108.95948)"
       d="m 19.44777,9.8001871 a 2.6052673,2.6052673 0 1 1 -5.210535,0 2.6052673,2.6052673 0 1 1 5.210535,0 z"/>
    <path class="pink"
       transform="matrix(1.056686,0,0,1.056686,104.77074,108.95948)"
       d="m 19.44777,9.8001871 a 2.6052673,2.6052673 0 1 1 -5.210535,0 2.6052673,2.6052673 0 1 1 5.210535,0 z"/>
  </g>
</svg>
